<svg xmlns="http://www.w3.org/2000/svg" viewBox="0 0 512 512"><path fill="#000" d="M171.7,40 L195.1,40 L211.1,43.7 L241.8,60.9 L248,68.3 L230.8,64.6 L228.3,64.6 L228.3,67.1 L248,80.6 L265.2,99.1 L283.7,126.2 L296,150.8 L294.8,153.2 L278.8,142.2 L254.2,132.3 L233.2,127.4 L218.5,127.4 L192.6,156.9 L195.1,184 L211.1,220.9 L230.8,248 L256.6,273.8 L281.2,292.3 L308.3,355.1 L305.8,356.3 L270.2,340.3 L234.5,383.4 L272.6,387.1 L293.5,393.2 L294.8,395.7 L152,411.7 L158.2,396.9 L177.8,380.9 L214.8,382.2 L233.2,348.9 L238.2,328 L229.5,316.9 L208.6,300.9 L180.3,273.8 L163.1,252.9 L147.1,224.6 L138.5,188.9 L139.7,159.4 L150.8,127.4 L149.5,115.1 L144.6,105.2 L134.8,96.6 L117.5,90.5 L59.7,88 L69.5,78.2 L86.8,68.3 L113.8,60.9 L128.6,60.9 L148.3,46.2Z"/><path fill="#000" d="M297.2,299.7 L345.2,328 L390.8,347.7 L396.9,352.6 L414.2,377.2 L428.9,404.3 L444.9,443.7 L452.3,472 L432.6,464.6 L410.5,452.3 L380.9,430.2 L364.9,414.2 L344,387.1 L325.5,357.5Z"/><path fill="#000" d="M220.9,136 L244.3,138.5 L278.8,153.2 L312,176.6 L340.3,204.9 L340.3,207.4 L355.1,223.4 L374.8,254.2 L394.5,294.8 L414.2,351.4 L401.8,341.5 L355.1,319.4 L353.8,316.9 L341.5,312 L340.3,309.5 L299.7,287.4 L271.4,267.7 L239.4,239.4 L239.4,236.9 L229.5,228.3 L214.8,207.4 L204.9,186.5 L200,166.8 L200,159.4Z"/></svg>
